<?xml version="1.0" encoding="UTF-8"?>
<svg xmlns="http://www.w3.org/2000/svg" xmlns:xlink="http://www.w3.org/1999/xlink" width="250px" height="117px" viewBox="0 0 250 117" version="1.1">
<g id="surface1">
<path style=" stroke:none;fill-rule:nonzero;fill:rgb(0%,0%,0%);fill-opacity:1;" d="M 25.042969 4.121094 C 21.832031 4.945312 18.40625 6.730469 17.125 8.101562 C 15.839844 9.679688 14.984375 22.316406 14.984375 40.992188 L 14.984375 71.410156 L 22.046875 71.410156 C 25.898438 71.410156 30.179688 71.066406 31.464844 70.652344 C 34.460938 69.691406 211.902344 69.761719 214.898438 70.722656 C 216.179688 71.132812 220.25 71.410156 224.101562 71.410156 L 231.164062 71.410156 L 231.164062 39.824219 C 231.164062 6.042969 230.949219 5.21875 220.675781 3.433594 C 217.894531 3.019531 183.21875 2.746094 123.5 2.746094 C 33.175781 2.746094 30.394531 2.816406 25.042969 4.121094 Z M 181.933594 38.449219 C 181.933594 38.863281 160.746094 39.136719 122.859375 39.136719 C 84.117188 39.136719 64.425781 38.929688 65.28125 38.449219 C 66.996094 37.488281 181.933594 37.488281 181.933594 38.449219 Z M 185.574219 42.84375 C 187.070312 43.050781 188.355469 43.53125 188.355469 43.945312 C 188.355469 44.425781 166.738281 44.628906 124.144531 44.628906 C 88.828125 44.628906 59.929688 44.355469 59.929688 44.082031 C 59.929688 43.804688 60.789062 43.257812 61.859375 42.84375 C 64 42.226562 180.222656 42.226562 185.574219 42.84375 Z M 191.351562 48.476562 C 202.054688 49.78125 188.140625 50.125 122.859375 50.125 C 59.074219 50.125 51.15625 49.984375 53.511719 49.09375 C 55.863281 48.199219 66.140625 48.0625 122.003906 48.0625 C 158.390625 48.0625 189.425781 48.269531 191.351562 48.476562 Z M 200.769531 55.066406 C 202.269531 55.546875 203.339844 56.164062 203.339844 56.441406 C 203.339844 56.714844 167.167969 56.988281 123.074219 56.988281 C 78.980469 56.988281 42.808594 56.785156 42.808594 56.578125 C 42.808594 56.304688 44.519531 55.683594 46.660156 55.203125 C 51.796875 53.96875 196.917969 53.832031 200.769531 55.066406 Z M 208.046875 62.277344 C 210.1875 62.894531 211.902344 63.648438 211.902344 63.992188 C 211.902344 64.269531 172.515625 64.542969 124.144531 64.542969 C 75.769531 64.542969 36.386719 64.335938 36.386719 64.0625 C 36.386719 63.855469 37.886719 63.03125 40.027344 62.34375 C 43.234375 61.179688 48.800781 61.109375 123.714844 61.109375 C 195.417969 61.109375 204.410156 61.246094 208.046875 62.277344 Z M 208.046875 62.277344 "/>
<path style=" stroke:none;fill-rule:nonzero;fill:rgb(0%,0%,0%);fill-opacity:1;" d="M 106.59375 73.949219 L 25.683594 74.15625 L 25.683594 80.335938 L 222.816406 80.335938 L 222.175781 77.039062 L 221.53125 73.8125 L 204.410156 73.8125 C 194.992188 73.8125 150.898438 73.878906 106.59375 73.949219 Z M 106.59375 73.949219 "/>
<path style=" stroke:none;fill-rule:nonzero;fill:rgb(0%,0%,0%);fill-opacity:1;" d="M 14.984375 88.917969 L 14.984375 92.007812 L 231.164062 92.007812 L 231.164062 85.828125 L 14.984375 85.828125 Z M 14.984375 88.917969 "/>
<path style=" stroke:none;fill-rule:nonzero;fill:rgb(0%,0%,0%);fill-opacity:1;" d="M 7.492188 106.769531 C 7.492188 112.125 8.132812 113.292969 10.703125 113.292969 C 13.269531 113.292969 13.914062 112.125 13.914062 106.769531 C 13.914062 101.414062 13.269531 100.246094 10.703125 100.246094 C 8.132812 100.246094 7.492188 101.414062 7.492188 106.769531 Z M 7.492188 106.769531 "/>
<path style=" stroke:none;fill-rule:nonzero;fill:rgb(0%,0%,0%);fill-opacity:1;" d="M 20.976562 101.34375 C 26.542969 102.582031 26.96875 104.777344 22.046875 106.699219 C 18.195312 108.074219 18.195312 108.074219 23.542969 107.042969 C 33.390625 104.984375 30.609375 100.246094 19.476562 100.246094 C 17.125 100.246094 17.550781 100.589844 20.976562 101.34375 Z M 20.976562 101.34375 "/>
<path style=" stroke:none;fill-rule:nonzero;fill:rgb(0%,0%,0%);fill-opacity:1;" d="M 50.726562 102.785156 C 49.871094 103.199219 46.445312 105.738281 43.023438 108.417969 C 38.742188 111.78125 37.671875 113.292969 39.597656 113.292969 C 41.097656 113.292969 42.808594 112.332031 43.664062 111.230469 C 45.375 108.347656 54.152344 108.347656 58.859375 111.230469 C 60.789062 112.332031 63.355469 113.292969 65.070312 113.292969 C 66.996094 113.292969 66.140625 112.195312 62.070312 109.308594 C 59.074219 107.179688 55.4375 104.640625 54.367188 103.75 C 52.867188 102.71875 51.582031 102.375 50.726562 102.785156 Z M 55.652344 107.9375 C 55.652344 108.210938 53.722656 108.484375 51.15625 108.484375 C 47.945312 108.484375 47.089844 108.210938 47.945312 107.386719 C 48.585938 106.769531 49.230469 105.945312 49.230469 105.535156 C 49.445312 104.640625 55.652344 107.042969 55.652344 107.9375 Z M 55.652344 107.9375 "/>
<path style=" stroke:none;fill-rule:nonzero;fill:rgb(0%,0%,0%);fill-opacity:1;" d="M 76.625 107.730469 C 76.199219 111.09375 76.839844 113.292969 78.125 113.292969 C 79.410156 113.292969 80.050781 111.644531 79.625 109.171875 C 79.195312 106.90625 79.410156 105.054688 80.050781 105.054688 C 80.90625 105.054688 86.902344 106.90625 93.535156 109.171875 C 99.957031 111.4375 106.164062 113.292969 107.234375 113.292969 C 108.089844 113.292969 109.160156 110.820312 109.589844 107.800781 C 110.015625 104.230469 109.375 102.304688 107.875 102.304688 C 106.59375 102.304688 105.949219 103.816406 106.59375 106.425781 C 107.019531 108.691406 106.804688 110.546875 105.734375 110.546875 C 104.667969 110.546875 98.03125 108.625 90.753906 106.355469 L 77.484375 102.101562 Z M 76.625 107.730469 "/>
<path style=" stroke:none;fill-rule:nonzero;fill:rgb(0%,0%,0%);fill-opacity:1;" d="M 124.570312 103.886719 C 118.578125 105.945312 118.363281 109.859375 123.929688 111.507812 C 129.066406 113.019531 139.125 113.910156 146.191406 113.5 C 150.683594 113.222656 151.753906 112.742188 152.398438 110.476562 C 153.039062 108.417969 152.398438 107.800781 149.828125 107.800781 C 147.261719 107.800781 146.617188 108.347656 147.261719 110.203125 C 148.117188 112.535156 147.902344 112.605469 140.839844 112.605469 C 126.925781 112.605469 118.363281 106.90625 127.996094 104.160156 C 132.707031 102.785156 145.761719 102.648438 149.402344 103.816406 C 151.328125 104.433594 151.96875 104.367188 151.96875 103.472656 C 151.96875 102.511719 149.828125 102.304688 140.625 102.304688 C 131.421875 102.304688 128.210938 102.648438 124.570312 103.886719 Z M 124.570312 103.886719 "/>
<path style=" stroke:none;fill-rule:nonzero;fill:rgb(0%,0%,0%);fill-opacity:1;" d="M 164.382812 105.875 C 165.238281 111.574219 166.308594 112.398438 173.375 113.222656 C 181.933594 114.117188 189.855469 113.15625 192.636719 110.890625 C 195.847656 108.210938 195.417969 102.304688 192.207031 102.304688 C 190.28125 102.304688 189.640625 103.472656 190.070312 106.425781 C 190.925781 111.230469 188.570312 112.605469 179.582031 112.605469 C 171.445312 112.605469 168.449219 110.683594 169.519531 106.015625 C 169.949219 103.0625 169.519531 102.304688 166.953125 102.304688 C 164.382812 102.304688 163.957031 103.0625 164.382812 105.875 Z M 164.382812 105.875 "/>
<path style=" stroke:none;fill-rule:nonzero;fill:rgb(0%,0%,0%);fill-opacity:1;" d="M 207.191406 107.730469 C 206.765625 111.371094 207.40625 113.292969 208.902344 113.292969 C 210.1875 113.292969 210.832031 111.78125 210.1875 109.171875 C 209.546875 106.699219 210.1875 105.054688 211.472656 105.054688 C 212.542969 105.054688 216.824219 106.21875 220.890625 107.59375 C 224.957031 109.035156 230.734375 110.957031 233.945312 111.78125 L 239.296875 113.429688 L 240.152344 107.867188 C 240.582031 104.433594 239.941406 102.304688 238.65625 102.304688 C 237.371094 102.304688 236.730469 103.953125 237.15625 106.425781 C 237.585938 108.691406 237.15625 110.546875 236.300781 110.546875 C 235.230469 110.546875 228.597656 108.625 221.320312 106.355469 L 208.046875 102.101562 Z M 207.191406 107.730469 "/>
</g>
</svg>
